<svg width="500" height="100" viewBox="0 0 500 100" fill="none" xmlns="http://www.w3.org/2000/svg">
<path d="M23.0505 77.8617C31.1157 77.8617 36.1937 74.0781 38.9817 68.3031H39.4795V76.7665H49.9343V6.07198H30.5182V12.6436H39.4795V35.1463H38.9817C35.4967 30.1678 30.7174 26.6829 23.0505 26.6829C10.8034 26.6829 2.24044 34.6485 2.24044 52.7702C2.24044 69.5975 10.8034 77.9613 23.0505 77.8617ZM39.4795 56.3547C39.4795 64.3203 35.0984 70.6927 26.4359 70.6927C18.3707 70.6927 13.5914 65.8138 13.5914 57.8482V46.8956C13.5914 38.7308 18.4703 33.8519 26.4359 33.8519C31.8126 33.8519 35.7954 36.5403 39.4795 41.4192V56.3547ZM72.6852 15.6307C76.3693 15.6307 79.2568 12.8427 79.2568 9.05907C79.2568 5.27542 76.3693 2.58703 72.6852 2.58703C69.1007 2.58703 66.2132 5.27542 66.2132 9.05907C66.2132 12.8427 69.1007 15.6307 72.6852 15.6307ZM77.8629 27.7782H58.5463V34.4493H67.5076V76.7665H77.8629V27.7782ZM111.524 72.9828C103.16 72.9828 99.6749 69.9957 99.6749 65.7142V64.7185C99.6749 62.3289 97.4843 61.2336 95.3934 61.2336C91.9084 61.2336 90.3153 63.3246 90.3153 65.6147C90.3153 72.1863 96.1899 78.4592 112.022 78.4592C126.559 78.4592 133.529 71.788 133.529 63.0259C133.529 55.5581 129.347 50.7788 118.095 48.2895L109.632 46.3977C104.255 45.2029 101.865 42.9128 101.865 39.5274C101.865 34.9472 105.649 31.761 112.619 31.761C119.888 31.761 123.074 34.3498 123.074 37.9343V38.93C123.074 41.1205 124.966 42.3154 127.156 42.3154C130.641 42.3154 132.234 40.324 132.234 37.8347C132.234 32.5575 127.654 26.2846 111.922 26.2846C98.9779 26.2846 92.2071 32.3584 92.2071 41.0209C92.2071 47.9908 96.3891 52.7702 106.047 54.9607L115.108 57.0517C121.182 58.5452 123.771 60.437 123.771 64.4198C123.771 69.697 118.991 72.9828 111.524 72.9828ZM193.55 52.7702C193.55 35.2459 184.987 26.7825 172.641 26.7825C165.073 26.7825 160.095 30.4666 156.71 35.5446H156.212V27.7782H136.895V34.4493H145.857V96.9791H156.212L156.311 68.8009H156.809C159.697 74.1777 164.576 77.8617 172.641 77.8617C184.888 77.8617 193.55 69.7966 193.55 52.7702ZM156.212 56.4543V41.5188C159.896 36.6399 163.779 33.9515 169.355 33.9515C177.221 33.9515 182.1 39.0296 182.1 46.9951V57.5495C182.1 65.8138 177.321 70.6927 169.255 70.6927C160.593 70.6927 156.212 64.3203 156.212 56.4543ZM235.805 70.2944C236.602 73.2815 237.896 75.6712 239.888 77.563L253.628 75.5716V69.7966L249.048 70.1949C246.36 70.4936 244.866 68.7013 244.866 63.5237V44.9042C244.866 32.5575 237.996 26.2846 223.16 26.2846C210.714 26.2846 204.043 31.9601 204.043 38.93C204.043 42.2158 205.735 44.008 208.822 44.008C212.008 44.008 213.701 42.5145 213.701 39.8261V38.6313C213.701 34.6485 217.086 32.1592 222.961 32.1592C231.126 32.1592 234.411 35.8433 234.411 43.1119V51.3762C229.831 49.6835 225.251 48.5882 219.874 48.5882C208.125 48.5882 201.354 53.8654 201.354 63.3246C201.354 72.2858 207.727 78.1605 218.978 78.1605C226.744 78.1605 232.022 74.9742 235.208 70.2944H235.805ZM212.108 65.0173V60.6362C212.108 56.056 215.493 53.3676 222.065 53.3676C226.446 53.3676 230.528 54.3633 234.411 56.056V60.5366C234.411 68.1039 228.835 72.0867 221.666 72.0867C215.294 72.0867 212.108 69.1992 212.108 65.0173ZM274.514 78.1605C279.194 78.1605 282.977 76.7665 285.964 74.2772L284.471 69.2988C282.28 70.4936 279.99 71.091 277.501 71.091C273.817 71.091 271.626 68.3031 271.626 64.3203V34.4493H285.168V27.7782H271.626V11.847H265.453C264.856 25.7868 263.163 27.7782 256.79 27.7782H252.31V34.4493H261.271V65.2164C261.271 73.2815 265.951 78.1605 274.514 78.1605ZM314.651 26.2846C299.914 26.2846 290.156 36.142 290.156 52.3719C290.156 68.5022 299.815 78.26 314.551 78.26C324.11 78.26 330.98 73.879 334.764 64.619L328.889 62.4284C325.902 68.9005 321.72 71.9871 314.949 71.9871C307.482 71.9871 301.507 67.0086 301.507 59.4413V44.4063C301.507 37.4364 307.282 32.5575 315.049 32.5575C322.118 32.5575 325.006 36.0425 325.006 40.5231V42.9128C325.006 45.8999 326.798 47.3934 329.387 47.3934C333.071 47.3934 334.863 45.2029 334.863 41.9171C334.863 34.7481 329.486 26.2846 314.651 26.2846ZM346.704 76.7665H357.159V41.2201C360.943 36.839 365.224 34.2502 370.501 34.2502C377.372 34.2502 380.259 37.6356 380.259 45.402V76.7665H399.576V70.0953H390.714V44.1076C390.714 34.4493 385.636 26.6829 374.484 26.6829C367.315 26.6829 361.64 30.1678 357.657 35.2459H357.159V6.07198H337.842V12.6436H346.704V76.7665Z" fill="#2E008B"/>
<circle cx="454.736" cy="46.581" r="42.8916" fill="#2E008B"/>
<path d="M442.481 87.6964C435.708 85.6804 429.635 82.0363 424.718 77.2178H442.481V87.6964Z" fill="#7173B9"/>
<path d="M442.481 77.2178H466.975C470.361 77.2178 473.103 74.4758 473.103 71.0904C473.103 67.7051 470.361 64.9631 466.975 64.9631H448.608C445.223 64.9631 442.481 67.7051 442.481 71.0904V77.2178Z" fill="#397BAD"/>
<path d="M415.972 64.963C414.162 61.1536 412.897 57.0351 412.279 52.7083H442.481V58.8357C442.481 62.221 439.739 64.963 436.354 64.963H415.972Z" fill="#FEA39A"/>
<path d="M448.608 40.4536H479.245C482.631 40.4536 485.373 43.1956 485.373 46.581C485.373 49.9663 482.631 52.7083 479.245 52.7083H442.481V46.581C442.481 43.1956 445.223 40.4536 448.608 40.4536Z" fill="#FB7616"/>
<path d="M412.279 40.4536C412.897 36.1268 414.162 32.0083 415.972 28.1989H442.481V34.3262C442.481 37.7116 439.739 40.4536 436.354 40.4536H412.279Z" fill="#F8D55D"/>
<path d="M442.481 28.1989H466.975C470.361 28.1989 473.103 25.4569 473.103 22.0715C473.103 18.6861 470.361 15.9441 466.975 15.9441H448.608C445.223 15.9441 442.481 18.6861 442.481 22.0715V28.1989Z" fill="#FFB549"/>
</svg>
